<?xml version="1.0" encoding="UTF-8"?>
<svg version="1.1" xmlns="http://www.w3.org/2000/svg" width="192" height="192">
<path d="M0 0 C8.73957475 1.56616273 15.21484409 11.16935192 20 18 C29.87606436 33.57499531 35.74187113 48.95372003 35.46655273 67.49609375 C35.4374182 69.63099406 35.44603747 71.76341977 35.45898438 73.8984375 C35.42086839 98.02219891 24.75685205 119.03899796 8 136 C4.81345509 138.91208337 1.51442197 141.49879689 -2 144 C-2.77214844 144.598125 -3.54429687 145.19625 -4.33984375 145.8125 C-9.44573353 149.58300323 -12.64707935 150.87626492 -19 150 C-22 148 -22 148 -22.56640625 145.23828125 C-21.78580967 140.77542219 -19.27841393 138.93547327 -15.9375 136.1875 C-14.73270569 135.13377249 -13.53215742 134.07517016 -12.3359375 133.01171875 C-11.75682617 132.49786621 -11.17771484 131.98401367 -10.58105469 131.45458984 C1.00758035 120.79290245 7.43641413 104.29169833 8.09863281 88.67382812 C8.10112827 86.78226798 8.05561012 84.89074417 8 83 C6.9171875 83.99 6.9171875 83.99 5.8125 85 C0.77035179 88.32949454 -5.24005413 87.92243632 -11 87 C-14.29072799 85.51233862 -16.53357147 83.61185474 -19 81 C-19.5259375 80.49339844 -20.051875 79.98679687 -20.59375 79.46484375 C-24.5258204 75.01941971 -24.62807718 70.57457638 -24.34765625 64.80078125 C-23.54904408 58.36701804 -20.49045293 55.18610212 -15.71875 51.19921875 C-11.97084317 48.58420194 -8.35638887 48.86586062 -3.9375 48.875 C-2.06384766 48.87113281 -2.06384766 48.87113281 -0.15234375 48.8671875 C3 49 3 49 5 50 C4.505 47.03 4.505 47.03 4 44 C3.34 44 2.68 44 2 44 C1.525625 43.030625 1.05125 42.06125 0.5625 41.0625 C-6.50806935 28.9275436 -19.80486533 21.00566588 -33 17 C-38.46060936 15.91103455 -43.88173712 15.68624442 -49.4296875 15.48242188 C-54.78325123 15.21674877 -54.78325123 15.21674877 -57 13 C-57.265625 11.125 -57.265625 11.125 -57.25 9 C-57.25515625 8.29875 -57.2603125 7.5975 -57.265625 6.875 C-57 5 -57 5 -55 3 C-42.8113166 -0.98296 -24.25683042 1.35963486 -13 7 C-10.27309749 7.45803441 -7.72766324 7.46487895 -5 7 C-2.03141843 4.79259319 -1.17134209 3.51402627 0 0 Z " fill="#6081A4" transform="translate(150,26)"/>
<path d="M0 0 C2.08459122 0.02152846 4.16575294 0.0000032 6.25024414 -0.02539062 C18.57632354 -0.05216836 30.12719572 2.23762318 41.14282227 8.02148438 C42.8018457 8.87226563 42.8018457 8.87226563 44.49438477 9.74023438 C47.44777959 11.48021892 50.02279187 13.16837314 52.51782227 15.52148438 C52.95532227 19.14648438 52.95532227 19.14648438 52.51782227 22.52148438 C50.51782227 24.52148437 50.51782227 24.52148437 47.70532227 24.89648438 C42.84185315 24.7843289 38.3655171 23.04030338 33.79907227 21.49414062 C17.7292131 16.73057523 -0.04835273 19.34234441 -14.88061523 26.78710938 C-16.48217773 27.52148438 -16.48217773 27.52148438 -18.48217773 27.52148438 C-18.48217773 28.18148437 -18.48217773 28.84148438 -18.48217773 29.52148438 C-17.78092773 29.70710938 -17.07967773 29.89273438 -16.35717773 30.08398438 C-11.95088886 32.28712881 -8.68717029 36.11149927 -6.48217773 40.52148438 C-5.54754794 52.47248829 -5.54754794 52.47248829 -8.10717773 58.08398438 C-13.2063329 63.31732783 -17.08740356 66.63079226 -24.66967773 66.83398438 C-31.24020726 66.77314614 -35.61704644 64.93645641 -40.59545898 60.74023438 C-42.81932932 58.12499969 -43.44124967 56.09338223 -44.23217773 52.77148438 C-44.47452148 51.78664062 -44.71686523 50.80179688 -44.96655273 49.78710938 C-45.13670898 49.03945313 -45.30686523 48.29179688 -45.48217773 47.52148438 C-45.97717773 48.51148437 -45.97717773 48.51148437 -46.48217773 49.52148438 C-47.14217773 49.52148438 -47.80217773 49.52148438 -48.48217773 49.52148438 C-48.65233398 50.05515625 -48.82249023 50.58882812 -48.99780273 51.13867188 C-50.36950752 55.35593446 -51.85675266 59.44567708 -53.60717773 63.52148438 C-55.51314731 68.23548547 -56.26262886 72.46307833 -56.48217773 77.52148438 C-56.57692383 78.60429687 -56.57692383 78.60429687 -56.67358398 79.70898438 C-57.27956167 91.28120347 -53.95239663 103.4767678 -47.65405273 113.12695312 C-46.18708388 116.12445948 -46.13555844 118.22404031 -46.48217773 121.52148438 C-48.48217773 123.52148438 -48.48217773 123.52148438 -52.10717773 124.33398438 C-54.24780273 124.30664062 -54.24780273 124.30664062 -56.48217773 123.52148438 C-60.97903584 118.85953183 -66.48217773 112.24647717 -66.48217773 105.52148438 C-67.14217773 105.19148438 -67.80217773 104.86148438 -68.48217773 104.52148438 C-70.96224692 98.72819776 -72.54349509 92.7402569 -73.48217773 86.52148438 C-74.01734451 83.37397811 -74.40825329 81.64090078 -76.10717773 78.89648438 C-79.55178058 76.90224062 -82.52116309 76.78555202 -86.48217773 76.52148438 C-87.38083313 60.64523908 -78.74812063 44.30287598 -68.48217773 32.52148438 C-67.75514648 31.65265625 -67.02811523 30.78382812 -66.27905273 29.88867188 C-58.28913569 20.66760409 -49.26362493 14.11410773 -38.48217773 8.52148438 C-37.89694336 8.17472656 -37.31170898 7.82796875 -36.70874023 7.47070312 C-25.62552395 1.20312012 -12.49086297 -0.15263186 0 0 Z " fill="#F24441" transform="translate(94.482177734375,6.478515625)"/>
<path d="M0 0 C2.0078125 0.328125 2.0078125 0.328125 3.7421875 1.53515625 C5.39976041 3.88338454 5.34082782 5.40646804 5.3828125 8.265625 C5.83441002 14.98645874 8.09507023 20.31319382 11.0078125 26.328125 C11.45253906 27.26914063 11.89726562 28.21015625 12.35546875 29.1796875 C17.66815136 39.68666424 27.41942001 52.4653275 39.0078125 56.328125 C39.02199219 55.77125 39.03617188 55.214375 39.05078125 54.640625 C39.43705276 48.4602808 40.97618975 44.08006435 45.0078125 39.328125 C51.11918503 34.56125443 56.41556809 33.46714883 64.0078125 34.328125 C66.93548197 35.40426675 69.30682418 36.72753933 72.0078125 38.328125 C72.0078125 38.988125 72.0078125 39.648125 72.0078125 40.328125 C73.4928125 40.823125 73.4928125 40.823125 75.0078125 41.328125 C79.17497647 46.88434363 78.7676147 53.70940365 78.0078125 60.328125 C75.83253793 64.83980559 72.63554052 67.90193743 69.0078125 71.328125 C85.4258764 72.44753845 101.02027264 67.68901143 113.828125 57.296875 C120.66810617 51.18088254 120.66810617 51.18088254 125.0078125 43.328125 C125.6678125 43.328125 126.3278125 43.328125 127.0078125 43.328125 C127.3171875 42.35875 127.6265625 41.389375 127.9453125 40.390625 C129.0078125 37.328125 129.0078125 37.328125 130.0078125 36.328125 C133.4453125 36.140625 133.4453125 36.140625 137.0078125 36.328125 C139.0078125 38.328125 139.0078125 38.328125 139.5078125 42.265625 C139.16409383 53.60834126 129.56184705 63.54828337 122.0078125 71.328125 C120.32185 72.81226425 118.6157969 74.27417295 116.8828125 75.703125 C113.85798696 78.27802129 113.08116321 79.11174042 111.7578125 83.015625 C112.0332588 86.66528853 113.00935302 88.33043578 115.0078125 91.328125 C114.5128125 92.813125 114.5128125 92.813125 114.0078125 94.328125 C104.55961672 98.20853104 94.74902256 98.97256518 84.65600586 98.84960938 C82.57351917 98.82815803 80.49449307 98.84955435 78.41210938 98.875 C54.47034733 98.92633002 34.91722926 88.88376732 17.4453125 72.83984375 C6.0078125 61.05408654 6.0078125 61.05408654 6.0078125 56.328125 C5.3478125 56.328125 4.6878125 56.328125 4.0078125 56.328125 C-0.1893773 47.80725474 -3.90626408 39.65059811 -5.9921875 30.328125 C-6.16492188 29.74144043 -6.33765625 29.15475586 -6.515625 28.55029297 C-7.10013749 25.82476393 -7.12191744 23.29164405 -7.125 20.50390625 C-7.12628906 19.39337891 -7.12757813 18.28285156 -7.12890625 17.13867188 C-7.12503906 15.98431641 -7.12117187 14.82996094 -7.1171875 13.640625 C-7.12105469 12.47466797 -7.12492188 11.30871094 -7.12890625 10.10742188 C-7.12761719 9.00076172 -7.12632812 7.89410156 -7.125 6.75390625 C-7.12387207 5.73723877 -7.12274414 4.72057129 -7.12158203 3.6730957 C-6.86620055 -0.95509129 -4.02858063 0.14865611 0 0 Z " fill="#5FC5BE" transform="translate(13.9921875,86.671875)"/>
<path d="M0 0 C0.66 0 1.32 0 2 0 C2 0.66 2 1.32 2 2 C2.721875 2.226875 3.44375 2.45375 4.1875 2.6875 C7.53209313 4.24831013 9.51603959 6.3031287 12 9 C11.67 9.66 11.34 10.32 11 11 C8.5625 10.25 8.5625 10.25 6 9 C5.65657551 7.66923011 5.32380126 6.33568021 5 5 C3.35857037 3.9590934 1.69287785 2.95495674 0 2 C0 1.34 0 0.68 0 0 Z " fill="#F26664" transform="translate(74,34)"/>
</svg>
